<?xml version="1.0" standalone="no"?>
<!DOCTYPE svg PUBLIC "-//W3C//DTD SVG 20010904//EN"
 "http://www.w3.org/TR/2001/REC-SVG-20010904/DTD/svg10.dtd">
<svg version="1.0" xmlns="http://www.w3.org/2000/svg"
 width="736.000000pt" height="736.000000pt" viewBox="0 0 736.000000 736.000000"
 preserveAspectRatio="xMidYMid meet">
<metadata>
Created by potrace 1.14, written by Peter Selinger 2001-2017
</metadata>
<g transform="translate(0.000000,736.000000) scale(0.100000,-0.100000)"
fill="#000000" stroke="none">
<path d="M2167 7284 c-3 -3 -65 -7 -139 -9 -149 -5 -233 -11 -353 -29 -144
-21 -385 -126 -482 -211 -6 -5 -40 -35 -75 -65 -171 -147 -310 -380 -352 -590
-3 -14 -7 -36 -10 -50 -3 -14 -8 -50 -12 -80 -3 -30 -7 -66 -10 -80 -2 -14 -7
-128 -9 -254 -3 -126 -7 -231 -9 -233 -2 -3 -1 -17 3 -31 5 -15 5 -36 1 -47
-4 -11 -4 -32 1 -47 4 -15 4 -30 -1 -33 -5 -3 -5 -18 -2 -33 4 -15 6 -40 5
-57 -6 -66 -5 -133 1 -144 4 -6 3 -11 -3 -11 -6 0 -7 -11 -3 -27 4 -16 6 -39
5 -53 -6 -61 -8 -170 -3 -170 3 0 4 -24 2 -52 -5 -105 -4 -156 2 -167 4 -6 3
-11 -3 -11 -6 0 -7 -11 -3 -27 4 -16 6 -39 5 -53 -6 -61 -8 -170 -3 -170 3 0
4 -24 2 -52 -5 -105 -4 -156 2 -167 4 -6 3 -11 -3 -11 -6 0 -7 -11 -2 -27 3
-16 5 -44 3 -63 -1 -19 -4 -46 -5 -60 -1 -14 1 -40 4 -57 4 -18 3 -33 -1 -33
-5 0 -5 -12 -1 -27 5 -16 5 -37 1 -48 -4 -11 -4 -34 1 -52 4 -18 3 -33 -1 -33
-5 0 -5 -12 -1 -27 5 -16 5 -37 1 -48 -4 -11 -4 -34 1 -52 4 -18 3 -33 -1 -33
-5 0 -5 -12 -1 -27 5 -16 5 -37 1 -48 -4 -11 -4 -34 1 -52 4 -18 3 -33 -1 -33
-5 0 -5 -13 0 -29 4 -16 6 -31 4 -34 -6 -6 -10 -107 -4 -107 3 0 4 -24 2 -52
-5 -105 -4 -156 2 -167 4 -6 3 -11 -3 -11 -6 0 -7 -11 -3 -27 4 -16 6 -39 5
-53 -6 -69 -7 -170 -1 -170 3 0 4 -8 2 -17 -6 -27 -10 -143 -4 -143 3 0 4 -24
2 -52 -5 -105 -4 -156 2 -167 4 -6 3 -11 -3 -11 -6 0 -7 -11 -3 -27 4 -16 6
-39 5 -53 -6 -66 -7 -170 -2 -170 3 0 3 -19 -1 -43 -3 -24 -3 -55 1 -70 4 -15
3 -29 -1 -32 -5 -3 -5 -18 0 -34 4 -15 4 -34 0 -41 -5 -7 -5 -23 0 -35 5 -12
5 -28 0 -35 -4 -7 -4 -24 0 -39 4 -14 4 -35 0 -46 -4 -11 -6 -23 -3 -27 2 -4
6 -85 9 -180 5 -210 9 -258 29 -378 27 -158 106 -339 211 -480 30 -40 234
-240 245 -240 5 0 19 -8 30 -19 55 -51 272 -145 384 -166 134 -26 257 -37 412
-39 51 -1 93 -4 93 -8 0 -4 6 -5 14 -2 19 7 166 11 166 4 0 -5 109 -3 170 3
14 1 37 -1 53 -5 16 -4 27 -3 27 3 0 6 5 7 11 3 11 -6 62 -7 167 -2 28 2 52 1
52 -2 0 -5 109 -3 170 3 14 1 37 -1 53 -5 16 -4 27 -3 27 3 0 6 5 7 11 3 11
-6 78 -7 144 -1 17 1 42 -1 57 -5 15 -3 30 -3 33 2 3 5 18 5 33 1 15 -5 36 -5
47 -1 11 4 32 4 47 -1 15 -4 30 -4 33 1 3 5 18 5 34 0 16 -4 31 -6 33 -4 3 2
20 6 40 8 122 16 203 110 203 235 0 77 -19 125 -68 171 -60 56 -114 73 -217
70 -30 -1 -61 -2 -67 -1 -26 2 -118 3 -203 2 -55 -1 -130 -1 -157 0 -16 1 -50
1 -78 0 -27 0 -58 -1 -67 0 -21 0 -135 0 -178 0 -55 -1 -130 -1 -157 0 -16 1
-50 1 -78 0 -27 0 -59 -1 -70 -1 -11 1 -45 1 -75 1 -30 -1 -140 1 -245 3 -180
4 -225 7 -320 23 -22 4 -44 7 -50 8 -35 4 -109 32 -162 62 -55 30 -157 111
-175 138 -3 5 -18 24 -33 40 -65 75 -118 203 -131 315 -2 25 -7 56 -10 70 -2
14 -7 117 -9 230 -2 113 -7 215 -9 227 -3 13 -2 23 2 23 4 0 7 34 7 75 0 41
-3 75 -6 75 -4 0 -3 17 1 38 3 20 3 49 -1 63 -3 15 -3 32 1 39 4 7 4 25 0 40
-4 15 -4 33 0 40 4 7 4 25 0 40 -4 15 -4 33 0 40 4 7 4 25 0 40 -4 15 -4 33 0
40 4 7 4 25 0 40 -4 15 -4 33 0 40 4 7 4 25 0 40 -4 15 -4 33 0 40 4 7 4 25 0
40 -4 15 -4 33 0 40 4 7 4 25 0 40 -4 15 -4 33 0 40 4 7 4 25 0 40 -4 15 -4
33 0 40 4 7 4 25 0 40 -4 15 -4 33 0 40 4 7 4 25 0 40 -4 15 -4 33 0 40 4 7 4
25 0 40 -4 15 -4 33 0 40 4 7 4 25 0 40 -4 15 -4 33 0 40 4 7 4 25 0 40 -4 15
-4 33 0 40 4 7 4 25 0 40 -4 15 -4 33 0 40 4 7 4 25 0 41 -5 15 -6 29 -4 32 6
6 10 107 4 107 -3 0 -4 24 -2 52 5 97 4 157 -3 167 -3 6 -2 11 4 11 6 0 7 11
3 28 -4 15 -6 38 -5 52 6 59 8 170 3 170 -3 0 -4 24 -2 52 5 97 4 157 -3 167
-3 6 -2 11 4 11 6 0 7 11 3 28 -4 15 -6 38 -5 52 6 59 8 170 3 170 -3 0 -4 24
-2 52 5 97 4 157 -3 167 -3 6 -2 11 4 11 6 0 7 11 3 28 -4 15 -6 38 -5 52 6
59 8 170 3 170 -3 0 -4 24 -2 52 5 97 4 157 -3 167 -3 6 -2 11 4 11 6 0 7 11
3 28 -4 15 -6 38 -5 52 6 59 8 170 3 170 -3 0 -5 27 -5 60 0 33 2 60 5 60 3 0
5 89 6 198 1 184 9 345 19 374 2 7 6 29 9 50 12 79 68 191 141 279 63 77 235
192 300 202 11 1 25 5 30 9 6 3 37 9 70 13 33 4 74 9 90 11 17 2 87 6 157 8
69 2 131 6 136 10 5 3 12 3 16 -1 9 -9 66 -9 66 0 0 5 5 5 12 1 12 -8 178 -7
186 1 2 2 14 0 26 -5 13 -4 29 -5 36 0 7 4 22 5 34 1 11 -5 35 -5 53 -1 19 5
33 4 33 -2 0 -5 5 -6 10 -3 13 8 100 12 100 5 0 -3 29 -3 65 0 36 3 65 3 65
-1 0 -3 20 -3 45 1 24 4 49 4 54 1 6 -4 39 -4 75 -1 37 3 66 2 66 -3 0 -4 5
-5 10 -2 13 8 100 12 100 5 0 -3 29 -3 65 0 36 3 65 3 65 -1 0 -3 20 -3 45 1
24 4 49 4 54 1 6 -4 39 -4 75 -1 37 3 66 2 66 -3 0 -4 5 -5 11 -1 6 3 41 6 78
5 67 -2 80 -2 183 0 32 0 61 -2 66 -5 4 -2 14 -1 22 4 7 4 23 5 35 0 12 -5 27
-5 34 0 7 4 28 4 46 0 18 -4 39 -4 46 0 7 5 22 5 34 0 12 -5 27 -5 34 0 7 4
28 4 46 0 18 -4 39 -4 46 0 7 5 22 5 34 0 12 -5 27 -5 34 0 7 4 28 4 46 0 18
-4 39 -4 46 0 7 5 21 5 33 1 11 -5 35 -5 53 -1 18 5 33 4 33 -1 0 -5 10 -5 23
-1 12 4 40 5 62 2 22 -3 61 -2 88 1 26 3 47 3 47 0 0 -3 75 -7 168 -7 154 -1
207 -4 334 -18 98 -11 231 -69 303 -131 17 -15 35 -30 40 -33 6 -4 31 -31 57
-60 86 -97 140 -218 154 -342 2 -25 7 -58 10 -75 3 -16 7 -129 9 -250 3 -121
5 -222 6 -225 0 -3 0 -30 -1 -60 -2 -68 -2 -98 -1 -130 1 -14 1 -33 1 -42 0
-10 0 -40 0 -68 0 -27 -1 -65 -1 -82 0 -78 0 -164 0 -178 1 -8 0 -37 0 -65 -1
-27 -1 -62 0 -77 0 -16 1 -50 1 -78 0 -27 0 -58 0 -67 0 -10 0 -29 -1 -43 0
-14 -1 -36 -1 -50 0 -14 1 -36 1 -50 1 -14 1 -33 1 -42 0 -10 0 -40 0 -68 0
-27 -1 -65 -1 -82 0 -78 0 -164 0 -178 1 -8 0 -37 0 -65 -1 -27 -1 -62 0 -77
0 -27 1 -93 0 -160 0 -78 0 -164 0 -178 1 -8 0 -37 0 -65 -1 -27 -1 -62 0 -77
0 -16 1 -50 1 -78 0 -27 0 -58 0 -67 0 -10 0 -29 -1 -43 -1 -31 -1 -66 0 -102
1 -16 1 -40 2 -55 0 -16 1 -41 0 -58 -2 -108 0 -127 21 -175 49 -114 199 -169
319 -117 74 32 132 115 135 195 1 26 3 48 4 50 5 8 1 112 -4 121 -4 6 -3 11 3
11 6 0 7 11 3 28 -4 15 -6 41 -5 57 2 17 3 40 3 53 0 36 0 54 1 109 1 28 -2
56 -6 62 -3 6 -2 11 4 11 6 0 7 11 3 28 -4 15 -6 38 -5 52 6 61 8 170 3 170
-3 0 -4 24 -2 52 5 105 4 156 -2 167 -4 6 -3 11 3 11 6 0 7 11 3 28 -4 15 -6
38 -5 52 6 61 8 170 3 170 -3 0 -4 24 -2 52 5 105 4 156 -2 167 -4 6 -3 11 3
11 6 0 7 11 3 28 -4 15 -6 41 -5 57 2 17 3 40 3 53 -1 43 0 53 1 106 1 30 -2
59 -5 65 -4 6 -3 11 3 11 6 0 7 11 3 28 -4 15 -6 38 -5 52 6 61 8 170 3 170
-3 0 -4 24 -2 52 5 105 4 156 -2 167 -4 6 -3 11 3 11 6 0 7 11 3 28 -4 15 -6
41 -5 57 5 56 4 145 -1 154 -4 5 -2 12 3 15 5 4 6 18 2 34 -4 15 -7 43 -5 62
5 58 5 91 0 195 -6 127 -15 243 -20 275 -3 14 -7 41 -10 60 -25 161 -105 346
-212 490 -30 40 -234 240 -245 240 -5 0 -19 8 -30 18 -10 11 -32 25 -47 33
-15 7 -38 21 -52 30 -77 49 -273 110 -405 124 -27 3 -68 8 -90 11 -36 4 -388
17 -425 15 -69 -3 -120 -2 -129 4 -6 3 -11 1 -11 -5 0 -6 -5 -8 -11 -4 -11 6
-62 7 -167 2 -28 -2 -52 -1 -52 2 0 5 -109 3 -170 -3 -14 -1 -37 1 -52 5 -17
4 -28 3 -28 -3 0 -6 -5 -7 -11 -3 -11 6 -62 7 -167 2 -28 -2 -52 -1 -52 2 0 5
-109 3 -170 -3 -14 -1 -37 1 -52 5 -17 4 -28 3 -28 -3 0 -6 -5 -7 -11 -3 -11
6 -62 7 -167 2 -28 -2 -52 -1 -52 2 0 5 -109 3 -170 -3 -14 -1 -37 1 -52 5
-17 4 -28 3 -28 -3 0 -6 -5 -7 -11 -3 -11 6 -62 7 -167 2 -28 -2 -52 -1 -52 2
0 5 -109 3 -170 -3 -14 -1 -37 1 -52 5 -17 4 -28 3 -28 -3 0 -6 -5 -7 -11 -3
-11 6 -62 7 -167 2 -28 -2 -52 -1 -52 2 0 7 -116 4 -135 -4 -8 -3 -15 -1 -15
5 0 6 -5 7 -10 4 -13 -8 -134 -10 -147 -2 -6 4 -13 4 -16 1z"/>
<path d="M2243 5680 c-155 -13 -245 -109 -238 -256 3 -67 22 -110 69 -154 42
-40 77 -58 127 -65 37 -6 160 -9 184 -5 6 1 26 2 45 1 37 0 684 0 710 0 8 0
56 0 105 -1 50 -1 95 -1 100 0 6 1 26 2 45 1 38 0 526 0 550 0 8 0 56 0 105
-1 50 -1 95 -1 100 0 6 1 13 2 16 2 25 -4 244 -5 279 -2 14 1 97 1 185 1 202
-1 237 2 283 25 201 104 158 408 -64 448 -24 5 -83 6 -219 5 -43 0 -262 0
-295 0 -19 0 -91 0 -160 0 -69 0 -136 0 -150 1 -14 1 -29 2 -35 1 -13 0 -246
-1 -315 0 -30 0 -84 0 -120 0 -36 -1 -86 0 -113 2 -26 1 -47 0 -47 -3 0 -3
-55 -4 -122 -3 -149 3 -260 4 -353 4 -38 0 -91 0 -118 2 -26 1 -47 0 -47 -3 0
-3 -21 -4 -47 -3 -27 1 -106 2 -178 2 -154 0 -196 1 -204 4 -3 2 -38 0 -78 -3z"/>
<path d="M2257 4404 c-3 -3 -23 -7 -44 -8 -81 -6 -168 -73 -197 -151 -30 -81
-8 -188 51 -249 58 -59 115 -77 248 -76 17 0 39 0 50 0 11 -1 26 -1 33 -1 30
2 39 2 67 2 17 -1 37 -1 45 -1 8 1 69 1 135 0 66 0 141 1 167 1 26 0 52 -2 58
-6 5 -3 10 -1 10 5 0 6 5 8 10 5 9 -6 57 -7 120 -4 8 0 101 0 205 0 105 -1
211 0 237 0 26 0 52 -2 58 -6 5 -3 10 -1 10 5 0 6 5 8 10 5 6 -4 34 -6 63 -6
29 0 75 0 102 0 28 -1 82 0 120 0 39 1 91 2 117 2 26 0 52 -2 58 -6 5 -3 10
-1 10 5 0 6 5 8 10 5 9 -6 94 -10 110 -5 3 0 28 2 55 4 60 4 78 11 131 48 59
42 89 106 89 188 0 74 -18 119 -65 167 -52 53 -125 79 -205 73 -27 -2 -56 -2
-153 2 -45 2 -82 1 -82 -2 0 -3 -19 -4 -42 -2 -79 4 -190 4 -195 -2 -3 -2 -16
-1 -29 4 -13 5 -24 6 -24 1 0 -5 -15 -5 -32 -2 -18 4 -50 4 -70 0 -21 -3 -40
-4 -43 -1 -3 3 -38 5 -78 3 -95 -3 -108 -3 -205 1 -45 2 -82 1 -82 -2 0 -4
-106 -4 -120 0 -3 1 -25 1 -50 1 -25 -1 -52 -2 -60 -2 -8 0 -48 1 -88 2 -41 0
-76 -2 -79 -5 -3 -2 -16 -1 -29 4 -13 5 -24 6 -24 1 0 -5 -15 -5 -32 -2 -18 4
-50 4 -70 0 -21 -3 -40 -4 -43 -1 -5 6 -116 5 -165 -1 -14 -2 -35 0 -46 4 -12
4 -24 5 -27 3z"/>
<path d="M5061 3185 c-28 -15 -61 -63 -61 -87 0 -10 -4 -18 -8 -18 -5 0 -9 -6
-9 -12 -1 -11 -173 -464 -202 -533 -5 -11 -31 -74 -57 -140 -26 -66 -50 -122
-53 -125 -3 -3 -12 -17 -20 -31 -18 -37 -103 -123 -157 -160 -51 -35 -140 -77
-253 -119 -42 -16 -188 -72 -326 -125 -137 -54 -256 -97 -262 -98 -7 0 -13 -4
-13 -9 0 -4 -8 -8 -17 -8 -27 0 -73 -34 -89 -65 -18 -35 -18 -69 2 -110 17
-36 52 -56 184 -105 47 -17 94 -35 105 -40 22 -9 57 -23 65 -24 8 -2 215 -83
310 -122 47 -19 89 -34 93 -34 5 0 27 -9 50 -19 23 -11 45 -18 48 -18 4 1 16
-6 27 -16 11 -10 26 -19 34 -21 31 -4 110 -73 170 -146 35 -44 108 -186 123
-242 2 -5 4 -10 5 -13 1 -3 3 -8 5 -12 3 -12 16 -46 26 -68 18 -42 109 -282
109 -288 0 -4 9 -26 19 -50 11 -23 33 -80 51 -127 59 -161 79 -188 147 -197
52 -7 99 22 123 75 25 54 34 75 49 117 6 17 16 44 22 60 7 17 13 32 14 35 0 3
18 50 39 105 22 55 63 163 93 240 110 286 145 351 232 431 46 43 141 109 141
99 0 -3 15 3 33 13 17 10 55 26 82 36 28 10 64 24 80 31 106 44 161 65 168 65
5 0 23 6 40 14 64 29 352 139 365 139 6 0 12 4 12 9 0 4 8 8 18 8 26 0 72 34
88 65 31 61 6 131 -59 163 -41 19 -160 66 -437 171 -74 29 -144 56 -155 60
-22 10 -56 23 -67 26 -5 2 -10 4 -13 5 -3 1 -8 3 -12 5 -57 15 -199 88 -243
123 -128 105 -154 152 -340 642 -112 294 -133 347 -152 387 -32 65 -107 91
-167 58z"/>
<path d="M2270 3127 c-3 -3 -25 -7 -50 -10 -58 -7 -76 -14 -126 -49 -59 -42
-89 -106 -89 -188 0 -40 7 -79 17 -100 35 -73 117 -133 184 -134 19 -1 34 -4
34 -7 0 -4 15 -4 33 0 32 7 91 5 114 -4 7 -2 15 0 18 4 3 5 21 5 40 1 19 -4
50 -5 68 -1 17 4 43 6 57 4 14 -1 59 -2 100 -2 41 0 82 0 90 0 74 -2 158 0
175 5 77 21 146 83 169 150 18 52 13 149 -9 191 -19 38 -70 88 -110 109 -36
19 -215 39 -215 24 0 -4 -105 -4 -120 0 -3 1 -36 1 -75 1 -38 -1 -83 -1 -100
-1 -135 1 -178 0 -185 -5 -4 -3 -10 0 -12 6 -2 5 -6 8 -8 6z"/>
</g>
</svg>
