<svg width="19" height="23" viewBox="0 0 19 23" fill="none" xmlns="http://www.w3.org/2000/svg">
<g clip-path="url(#clip0_8751_756)">
<path fill-rule="evenodd" clip-rule="evenodd" d="M5.7679 0.25H12.2321C13.0449 0.249993 13.7006 0.249987 14.2315 0.293364C14.7781 0.338026 15.2582 0.432385 15.7025 0.658726C16.4081 1.01825 16.9817 1.59193 17.3413 2.29754C17.5676 2.74175 17.662 3.2219 17.7066 3.76853C17.75 4.29944 17.75 4.95505 17.75 5.76788V13C17.75 13.4142 17.4142 13.75 17 13.75C16.5858 13.75 16.25 13.4142 16.25 13V5.8C16.25 4.94755 16.2494 4.35331 16.2116 3.89068C16.1745 3.4368 16.1054 3.17604 16.0048 2.97852C15.7891 2.55516 15.4448 2.21095 15.0215 1.99524C14.824 1.8946 14.5632 1.82547 14.1093 1.78838C13.6467 1.75058 13.0525 1.75 12.2 1.75H5.8C4.94755 1.75 4.35331 1.75058 3.89068 1.78838C3.4368 1.82547 3.17604 1.8946 2.97852 1.99524C2.55516 2.21095 2.21095 2.55516 1.99524 2.97852C1.8946 3.17604 1.82547 3.4368 1.78838 3.89068C1.75058 4.35331 1.75 4.94755 1.75 5.8V16.2C1.75 17.0525 1.75058 17.6467 1.78838 18.1093C1.82547 18.5632 1.8946 18.824 1.99524 19.0215C2.21095 19.4448 2.55516 19.789 2.97852 20.0048C3.17604 20.1054 3.4368 20.1745 3.89068 20.2116C4.35331 20.2494 4.94755 20.25 5.8 20.25H9C9.41421 20.25 9.75 20.5858 9.75 21C9.75 21.4142 9.41421 21.75 9 21.75H5.76788C4.95505 21.75 4.29944 21.75 3.76853 21.7066C3.2219 21.662 2.74175 21.5676 2.29754 21.3413C1.59193 20.9817 1.01825 20.4081 0.658726 19.7025C0.432385 19.2582 0.338026 18.7781 0.293364 18.2315C0.249987 17.7006 0.249993 17.0449 0.25 16.2321V5.7679C0.249993 4.95506 0.249987 4.29944 0.293364 3.76853C0.338026 3.2219 0.432385 2.74175 0.658726 2.29754C1.01825 1.59193 1.59193 1.01825 2.29754 0.658726C2.74175 0.432385 3.2219 0.338026 3.76853 0.293364C4.29944 0.249987 4.95506 0.249993 5.7679 0.25ZM4.25 6C4.25 5.58579 4.58579 5.25 5 5.25H13C13.4142 5.25 13.75 5.58579 13.75 6C13.75 6.41421 13.4142 6.75 13 6.75H5C4.58579 6.75 4.25 6.41421 4.25 6ZM4.25 10C4.25 9.58579 4.58579 9.25 5 9.25H11C11.4142 9.25 11.75 9.58579 11.75 10C11.75 10.4142 11.4142 10.75 11 10.75H5C4.58579 10.75 4.25 10.4142 4.25 10ZM4.25 14C4.25 13.5858 4.58579 13.25 5 13.25H7C7.41421 13.25 7.75 13.5858 7.75 14C7.75 14.4142 7.41421 14.75 7 14.75H5C4.58579 14.75 4.25 14.4142 4.25 14Z" fill="white"/>
<path d="M14.3531 13.2425C14.2288 12.9192 13.7713 12.9192 13.6468 13.2425L12.9064 15.1678C12.7284 15.6302 12.6396 15.8614 12.5014 16.0558C12.3788 16.2282 12.2282 16.3788 12.0558 16.5013C11.8614 16.6396 11.6301 16.7285 11.1677 16.9064L9.24254 17.6468C8.91915 17.7712 8.91915 18.2288 9.24254 18.3531L11.1677 19.0936C11.6301 19.2714 11.8614 19.3603 12.0558 19.4987C12.2282 19.6213 12.3788 19.7719 12.5014 19.9441C12.6396 20.1387 12.7284 20.3698 12.9064 20.8322L13.6468 22.7575C13.7713 23.0808 14.2288 23.0808 14.3531 22.7575L15.0935 20.8322C15.2715 20.3698 15.3604 20.1387 15.4987 19.9441C15.6211 19.7719 15.7718 19.6213 15.9442 19.4987C16.1385 19.3603 16.3698 19.2714 16.8322 19.0936L18.7574 18.3531C19.0809 18.2288 19.0809 17.7712 18.7574 17.6468L16.8322 16.9064C16.3698 16.7285 16.1385 16.6396 15.9442 16.5013C15.7718 16.3788 15.6211 16.2282 15.4987 16.0558C15.3604 15.8614 15.2715 15.6302 15.0935 15.1678L14.3531 13.2425Z" fill="white"/>
</g>
<defs>
<clipPath id="clip0_8751_756">
<rect width="19" height="23" fill="white"/>
</clipPath>
</defs>
</svg>
